<mxfile host="app.diagrams.net" modified="2021-11-08T09:19:35.908Z" agent="5.0 (Windows NT 10.0; Win64; x64) AppleWebKit/537.36 (KHTML, like Gecko) Chrome/94.0.4606.81 Safari/537.36 OPR/80.0.4170.91" etag="sywjhpH9iLRoOb0DssyM" version="15.7.0" type="github">
  <diagram id="j7CseQX7H152feD_j4Yb" name="Page-1">
    <mxGraphModel dx="951" dy="639" grid="1" gridSize="10" guides="1" tooltips="1" connect="1" arrows="1" fold="1" page="1" pageScale="1" pageWidth="827" pageHeight="1169" math="0" shadow="0">
      <root>
        <mxCell id="0" />
        <mxCell id="1" parent="0" />
        <mxCell id="0iMEfIhh2yUHPYTHlg61-3" value="" style="edgeStyle=orthogonalEdgeStyle;rounded=0;orthogonalLoop=1;jettySize=auto;html=1;" edge="1" parent="1" source="0iMEfIhh2yUHPYTHlg61-1" target="0iMEfIhh2yUHPYTHlg61-2">
          <mxGeometry relative="1" as="geometry" />
        </mxCell>
        <mxCell id="0iMEfIhh2yUHPYTHlg61-1" value="Початок" style="rounded=1;whiteSpace=wrap;html=1;arcSize=35;fillColor=#ffcd28;strokeColor=#d79b00;gradientColor=#ffa500;" vertex="1" parent="1">
          <mxGeometry x="354" y="10" width="100" height="50" as="geometry" />
        </mxCell>
        <mxCell id="0iMEfIhh2yUHPYTHlg61-5" value="" style="edgeStyle=orthogonalEdgeStyle;rounded=0;orthogonalLoop=1;jettySize=auto;html=1;" edge="1" parent="1" source="0iMEfIhh2yUHPYTHlg61-2" target="0iMEfIhh2yUHPYTHlg61-4">
          <mxGeometry relative="1" as="geometry" />
        </mxCell>
        <mxCell id="0iMEfIhh2yUHPYTHlg61-2" value="Оголошення &lt;br&gt;змін" style="shape=parallelogram;perimeter=parallelogramPerimeter;whiteSpace=wrap;html=1;fixedSize=1;size=6;" vertex="1" parent="1">
          <mxGeometry x="354" y="90" width="100" height="50" as="geometry" />
        </mxCell>
        <mxCell id="0iMEfIhh2yUHPYTHlg61-7" value="" style="edgeStyle=orthogonalEdgeStyle;rounded=0;orthogonalLoop=1;jettySize=auto;html=1;" edge="1" parent="1" source="0iMEfIhh2yUHPYTHlg61-4" target="0iMEfIhh2yUHPYTHlg61-6">
          <mxGeometry relative="1" as="geometry" />
        </mxCell>
        <mxCell id="0iMEfIhh2yUHPYTHlg61-4" value="Цикл for" style="shape=hexagon;perimeter=hexagonPerimeter2;whiteSpace=wrap;html=1;fixedSize=1;" vertex="1" parent="1">
          <mxGeometry x="359" y="170" width="90" height="60" as="geometry" />
        </mxCell>
        <mxCell id="0iMEfIhh2yUHPYTHlg61-10" value="" style="edgeStyle=orthogonalEdgeStyle;rounded=0;orthogonalLoop=1;jettySize=auto;html=1;" edge="1" parent="1" source="0iMEfIhh2yUHPYTHlg61-6" target="0iMEfIhh2yUHPYTHlg61-9">
          <mxGeometry relative="1" as="geometry" />
        </mxCell>
        <mxCell id="0iMEfIhh2yUHPYTHlg61-6" value="Виведення тексту на консоль" style="rounded=0;whiteSpace=wrap;html=1;" vertex="1" parent="1">
          <mxGeometry x="354" y="260" width="100" height="50" as="geometry" />
        </mxCell>
        <mxCell id="0iMEfIhh2yUHPYTHlg61-9" value="Введення варіанту" style="shape=parallelogram;perimeter=parallelogramPerimeter;whiteSpace=wrap;html=1;fixedSize=1;size=11;" vertex="1" parent="1">
          <mxGeometry x="354" y="330" width="100" height="50" as="geometry" />
        </mxCell>
      </root>
    </mxGraphModel>
  </diagram>
</mxfile>
